<?xml version="1.0" encoding="utf-8"?>
<!-- Generator: Adobe Illustrator 21.0.2, SVG Export Plug-In . SVG Version: 6.00 Build 0)  -->
<svg version="1.1" id="Слой_1" xmlns="http://www.w3.org/2000/svg" xmlns:xlink="http://www.w3.org/1999/xlink" x="0px" y="0px"
	 viewBox="0 0 292.1 101.9" style="enable-background:new 0 0 292.1 101.9;" xml:space="preserve">
<style type="text/css">
	.st0{fill-rule:evenodd;clip-rule:evenodd;fill:#D31617;}
	.st1{fill-rule:evenodd;clip-rule:evenodd;fill:#1D2FAD;fill:#fff;}
	.st2{fill:#1D2FAD;}
</style>
<g id="XMLID_494_">
	<path id="XMLID_522_" class="st0" d="M68,8.1l136.7,24.5c2.2,0.4,4.3,3.1,3.3,6l-12.7,36.3c-1,2.8-4.1,8.9-12.9,9.4L23.2,93.6
		C16.5,94,10,86.2,12.6,79.1l18.5-50.9C34.6,18.7,47.1,4.4,68,8.1z M62.8,0.7L205.7,28c5.8,1.1,8.7,7.2,7,12l-13.6,38.6
		c-1.3,3.8-6.1,11.5-16.3,12.2L20,101.8C6.1,102.8-3.3,89.1,1.1,77.2l20.1-53.8C26.6,9,43-3.1,62.8,0.7z"/>
	<g id="XMLID_495_">
		<path id="XMLID_509_" class="st1" d="M257.6,53.3l0.8-2.1c1.1-2.9,8-4.9,14.3-4.9c7.2,0,11.6,2.3,10.7,4.9l-2.3,6.3
			c-0.2,0.5-1.2,0.9-2.2,0.9c-1,0-2,0.4-2.2,0.9l-0.1,0.3c-0.2,0.5,0.5,0.9,1.5,0.9c1,0,1.7,0.4,1.5,0.9l-1.6,4.4l-0.9,2.4
			c-1,2.8-7.5,4.9-14.3,4.9c-7.4,0-11.6-2.4-10.7-4.9l2.3-6.2c1.1-2.9,8-4.9,14.3-4.9c2.7,0,5.2-0.8,5.6-1.9l1.5-4.2
			c0.4-1.1-1.7-1.9-4.2-1.9c-2.7,0-5.2,0.8-5.6,1.9l-0.8,2.1c-0.2,0.5-1.1,0.9-2.2,0.9h-3.8C258,54.2,257.4,53.8,257.6,53.3z
			 M262,62.2l-2.3,6.2c-0.4,1.1,1.7,1.9,4.2,1.9c2.7,0,5.2-0.8,5.6-1.9l2.3-6.4c0.2-1-1.8-1.8-4.3-1.8
			C264.9,60.3,262.3,61.1,262,62.2z M48.5,79.5c-0.3,0.7-1.7,1.4-3.4,1.4h-5.7c-1.7,0-2.6-0.7-2.3-1.4l8.4-23
			c0.3-0.8,1.8-1.4,3.4-1.4c1.6,0,3.1-0.6,3.4-1.4l0.2-0.5c0.3-0.8-0.8-1.4-2.3-1.4c-1.6,0-2.6-0.6-2.3-1.4L52.3,38
			c1.5-4.2,11.3-7.4,21.4-7.4c11.1,0,17.4,3.6,16,7.4l-1.2,3.1c-0.3,0.7-1.7,1.4-3.4,1.4h-5.7c-1.7,0-2.6-0.7-2.3-1.4l1.2-3.1
			c0.6-1.6-2.5-2.8-6.3-2.8c-4,0-7.8,1.2-8.4,2.8l-4.2,11.5c-0.3,0.9,1.2,1.9,4.2,1.9h6.1c1.7,0,2.6,0.7,2.3,1.4l-0.5,1.5
			c-0.4,1.1-2.4,1.5-3.3,1.5l-6.1,0c-2.6,0-5.2,0.8-5.6,1.9L48.5,79.5z M171.7,53.3l0.8-2.1c1.1-2.9,8-4.9,14.3-4.9
			c7.2,0,11.6,2.3,10.7,4.9l-2.3,6.3c-0.2,0.5-1.2,0.9-2.2,0.9c-1,0-2,0.4-2.2,0.9l-0.1,0.3c-0.2,0.5,0.5,0.9,1.5,0.9
			c1,0,1.7,0.4,1.5,0.9L192,66l-0.9,2.4c-1,2.8-7.5,4.9-14.3,4.9c-7.4,0-11.6-2.4-10.7-4.9l2.3-6.2c1.1-2.9,8-4.9,14.3-4.9
			c2.7,0,5.2-0.8,5.6-1.9l1.5-4.2c0.4-1.1-1.7-1.9-4.2-1.9c-2.7,0-5.2,0.8-5.6,1.9l-0.8,2.1c-0.2,0.5-1.1,0.9-2.2,0.9h-3.8
			C172.1,54.2,171.5,53.8,171.7,53.3z M176,62.2l-2.3,6.2c-0.4,1.1,1.7,1.9,4.2,1.9c2.7,0,5.2-0.8,5.6-1.9l2.3-6.4
			c0.2-1-1.8-1.8-4.3-1.8C178.9,60.3,176.4,61.1,176,62.2z M106.5,72.4c-0.2,0.5-1.1,0.9-2.2,0.9h-3.8c-1.1,0-1.7-0.5-1.5-0.9
			l11.2-30.8c1-2.8,7.5-4.9,14.3-4.9c7.4,0,11.6,2.4,10.7,4.9l-0.8,2.1c-0.2,0.5-1.1,0.9-2.2,0.9h-3.8c-1.2,0-1.7-0.5-1.5-0.9
			l0.8-2.1c0.4-1.1-1.7-1.9-4.2-1.9c-2.7,0-5.2,0.8-5.6,1.9L106.5,72.4z M255.9,40.6l-0.6,1.5c-0.2,0.5-1.1,0.9-2.2,0.9h-3.8
			c-1.1,0-1.7-0.5-1.5-0.9l0.6-1.5c0.2-0.5,1.1-0.9,2.2-0.9h3.8C255.5,39.7,256.1,40.2,255.9,40.6z M141.3,72.4
			c-0.2,0.5-1.1,0.9-2.2,0.9h-3.8c-1.1,0-1.7-0.5-1.5-0.9l7.7-21.2c0.4-1.1-1.7-1.9-4.2-1.9c-2.7,0-5.2,0.8-5.6,1.9l-7.7,21.2
			c-0.2,0.5-1.1,0.9-2.2,0.9h-3.8c-1.1,0-1.7-0.5-1.5-0.9l7.7-21.2c1-2.8,7.5-4.9,14.3-4.9h17.4c7.4,0,11.6,2.4,10.7,4.9l-7.7,21.2
			c-0.2,0.5-1.1,0.9-2.2,0.9h-3.8c-1.1,0-1.7-0.5-1.5-0.9l7.7-21.2c0.4-1.1-1.7-1.9-4.2-1.9c-2.7,0-5.2,0.8-5.6,1.9L141.3,72.4z
			 M230.9,53.3l0.8-2.1c0.4-1.1-1.7-1.9-4.2-1.9c-2.7,0-5.2,0.8-5.6,1.9l-6.3,17.2c-0.4,1.1,1.7,1.9,4.2,1.9c2.7,0,5.2-0.8,5.6-1.9
			l0.8-2.1c0.2-0.5,1.1-0.9,2.2-0.9h3.8c1.2,0,1.7,0.5,1.5,0.9l-0.8,2.1c-1.1,2.9-8,4.9-14.3,4.9c-7.2,0-11.6-2.3-10.7-4.9l6.3-17.2
			c1-2.8,7.5-4.9,14.3-4.9c7.4,0,11.6,2.4,10.7,4.9l-0.8,2.1c-0.2,0.5-1.1,0.9-2.2,0.9h-3.8C231.3,54.2,230.8,53.8,230.9,53.3z
			 M93.4,51.2c0.4-1.1-1.7-1.9-4.2-1.9c-2.7,0-5.2,0.8-5.6,1.9l-6.3,17.2c-0.4,1.1,1.7,1.9,4.2,1.9c2.7,0,5.2-0.8,5.6-1.9L93.4,51.2
			z M94.7,68.4c-1.1,2.9-8,4.9-14.3,4.9c-7.2,0-11.6-2.3-10.7-4.9L76,51.2c1-2.8,7.5-4.9,14.3-4.9c7.4,0,11.6,2.4,10.7,4.9
			L94.7,68.4z M253.5,47.3l-9.2,25.2c-0.2,0.5-1.1,0.9-2.2,0.9h-3.8c-1.1,0-1.7-0.5-1.5-0.9l9.2-25.2c0.2-0.5,1.1-0.9,2.2-0.9h3.8
			C253.1,46.3,253.6,46.8,253.5,47.3z"/>
		<g id="XMLID_496_">
			<g>
				<path id="XMLID_37_" class="st2" d="M288.3,66.1c2,0,3.7,1.7,3.7,3.7s-1.7,3.7-3.7,3.7s-3.7-1.7-3.7-3.7S286.3,66.1,288.3,66.1z
					 M288.3,73c1.7,0,3.1-1.4,3.1-3.1c0-1.7-1.4-3.1-3.1-3.1c-1.7,0-3.1,1.4-3.1,3.1C285.2,71.6,286.6,73,288.3,73z M287.5,71.9H287
					v-4.3h1.5c1,0,1.5,0.5,1.5,1.2c0,0.8-0.5,1.2-1.1,1.3l1.3,1.7h-0.6l-1.3-1.7h-0.8V71.9z M287.5,69.7h0.7c0.6,0,1.2-0.1,1.2-0.8
					c0-0.5-0.5-0.8-1-0.8h-1V69.7z"/>
			</g>
		</g>
	</g>
</g>
</svg>
