<?xml version="1.0" encoding="UTF-8" standalone="no"?>
<svg
   xmlns:dc="http://purl.org/dc/elements/1.1/"
   xmlns:cc="http://creativecommons.org/ns#"
   xmlns:rdf="http://www.w3.org/1999/02/22-rdf-syntax-ns#"
   xmlns:svg="http://www.w3.org/2000/svg"
   xmlns="http://www.w3.org/2000/svg"
   xmlns:sodipodi="http://sodipodi.sourceforge.net/DTD/sodipodi-0.dtd"
   xmlns:inkscape="http://www.inkscape.org/namespaces/inkscape"
   version="1.1"
   width="601.37451"
   height="144.03551"
   id="svg16"
   viewBox="0 0 601.37451 144.03551"
   sodipodi:docname="brand.svg"
   inkscape:version="0.92.3 (2405546, 2018-03-11)">
  <sodipodi:namedview
     pagecolor="#ffffff"
     bordercolor="#666666"
     borderopacity="1"
     objecttolerance="10"
     gridtolerance="10"
     guidetolerance="10"
     inkscape:pageopacity="0"
     inkscape:pageshadow="2"
     inkscape:window-width="1920"
     inkscape:window-height="1001"
     id="namedview13"
     showgrid="false"
     fit-margin-top="0"
     fit-margin-left="0"
     fit-margin-right="0"
     fit-margin-bottom="0"
     inkscape:zoom="0.39645504"
     inkscape:cx="-304.67778"
     inkscape:cy="72.017713"
     inkscape:window-x="-9"
     inkscape:window-y="-9"
     inkscape:window-maximized="1"
     inkscape:current-layer="svg16" />
  <metadata
     id="metadata22">
    <rdf:RDF>
      <cc:Work
         rdf:about="">
        <dc:format>image/svg+xml</dc:format>
        <dc:type
           rdf:resource="http://purl.org/dc/dcmitype/StillImage" />
        <dc:title></dc:title>
      </cc:Work>
    </rdf:RDF>
  </metadata>
  <defs
     id="defs20" />
  <g
     id="Layer1000"
     transform="translate(-120.25767,-225.62)">
    <path
       d="m 654.0596,250.36 -16.0808,43.6126 h -17.3356 v 23.6967 h 8.5983 l -10.5865,28.7125 h 25.3228 l 10.5866,-28.7125 h 30.9276 l 10.7753,28.7133 25.3649,-0.001 -35.932,-96.0214 z m -383.3705,96.0222 -29.0837,4e-4 35.4042,-96.0234 68.2301,-4e-4 4e-4,96.023 -26.448,4e-4 8e-4,-72.3045 -21.4456,-3e-4 z m 162.7062,-96.023 h -76.4021 l 3e-4,96.0234 76.4018,-4e-4 -4e-4,-24.0109 -49.9553,-4e-4 4e-4,-14.9403 49.9553,-4e-4 -4e-4,-23.697 -49.9553,-4e-4 4e-4,-9.6539 49.9553,-8e-4 z m 106.5222,96.0234 h -26.4472 v -38.9527 l -35.997,7e-4 -8e-4,38.9512 -26.4469,4e-4 v -38.9523 h -7.8804 v -23.6967 h 7.8801 V 250.36 h 26.448 v 33.3732 h 3.2848 l 32.7122,3e-4 -8e-4,-33.3735 26.4477,-8e-4 z m 89.5873,-96.0222 h -79.6402 v 23.6967 h 27.1499 v 72.3247 h 26.448 v -72.3247 h 26.0423 z m 33.7965,43.6122 6.5903,-17.8738 6.7074,17.8738 z"
       style="fill:#ffec00;fill-rule:evenodd"
       id="path2"
       inkscape:connector-curvature="0" />
    <g
       id="Layer1001">
      <path
         d="m 152.1132,300.0244 c -0.7509,-4.2468 -0.0398,-7.834 1.7532,-10.9307 -8.1562,1.4174 -12.2686,-0.8312 -16.3905,-3.071 -0.1058,-5.2298 1.0896,-9.9377 4.3798,-13.8044 -6.8199,-1.4342 -11.3836,-5.0199 -13.1494,-11.2744 3.1531,-4.4969 7.1088,-5.7709 10.4997,-5.975 -5.0813,-0.322 -8.024,-3.2431 -8.8917,-7.5809 2.8488,-4.8715 6.8309,-5.9635 11.3985,-5.101 -1.7409,-2.4569 -2.7409,-5.0451 -3.2159,-7.7254 4.9912,-1.0338 8.9553,-0.5819 12.426,0.582 -0.3724,-2.777 -0.1314,-5.2077 1.3022,-7.5274 4.2265,-1.1421 8.5864,0.281 11.3249,3.8419 0.636,0.2202 1.2842,0.3227 1.9409,0.3441 0.9241,-2.309 2.36,-4.5014 6.0352,-6.1822 2.683,0.9367 4.6649,2.8546 5.5445,5.8561 0.7984,-0.0249 1.6168,-0.083 2.4474,-0.1618 1.8872,-4.2617 5.6762,-6.0258 10.1123,-5.1246 4.9522,3.5142 6.2061,7.3507 6.9317,10.6561 0.7088,0.3093 1.4708,0.3567 2.2976,0.0887 2.7155,-2.4665 5.8686,-4.3649 10.9276,-3.4167 3.173,3.167 5.2238,7.1534 4.4848,13.1774 10.1507,-2.2219 19.1463,1.7462 24.6371,9.5282 -2.886,3.6736 -6.3552,5.8798 -10.0258,7.5801 8.0665,1.9243 11.9759,5.6515 15.0048,9.7606 -2.5428,5.4271 -6.5686,7.6727 -11.9874,6.7501 l -0.3827,0.7505 0.2203,0.8133 c 5.2916,4.0548 6.3413,8.7597 4.1591,14.7228 -5.4468,0.5904 -10.3951,0.125 -15.0875,-1.0572 0.398,3.5043 0.1092,7.5813 -2.0585,13.2263 -8.1209,-0.0532 -13.7206,-2.6413 -18.5597,-6.1222 -0.3624,3.0741 -1.5156,5.7903 -4.8211,8.1628 -8.2056,-2.1297 -13.7677,-6.3008 -17.5368,-12.3889 -7.5582,4.9166 -15.8932,6.1401 -25.7206,1.6028 z"
         style="fill:#ffec00;fill-rule:evenodd"
         id="path4"
         inkscape:connector-curvature="0" />
      <path
         d="m 162.6926,253.1852 -0.3954,-3.6232 5.9387,0.4447 1.449,-3.0133 5.4123,1.8208 1.2589,-2.2609 6.672,3.0768 3.5246,-1.6326 2.8638,4.2311 6.4425,-0.9643 2.0949,4.1787 5.7985,-0.001 0.1663,5.1339 4.8173,0.8668 -0.5525,4.8053 4.5016,2.2047 -2.3703,2.9926 2.7282,2.8753 -3.0431,2.3224 0.8681,3.7815 -4.8165,-0.0795 0.395,3.9397 -6.0023,-0.395 -0.7935,2.6115 -6.2747,-1.851 -2.5703,2.7182 -3.5534,-2.9931 -5.6893,1.4273 -3.0768,-3.9474 -5.6069,1.1027 -1.0275,-4.2548 -6.3168,-0.5502 -0.2372,-4.805 -5.2905,-1.1818 0.7103,-4.8826 -4.3426,-2.2058 2.6064,-3.0718 -3.3171,-2.4425 3.8684,-2.4413 -2.0106,-3.5651 z"
         style="fill:#102a83;fill-rule:evenodd"
         id="path6"
         inkscape:connector-curvature="0" />
      <path
         d="m 163.8967,345.8633 c -1.0957,9.9144 -1.106,19.2036 7.0356,23.7922 1.8895,-4e-4 3.7795,-4e-4 5.669,-8e-4 -3.5504,-2.8164 -5.592,-6.4686 -4.2407,-12.0023 3.4377,-4.6789 7.9922,-5.9395 13.1194,-5.4474 10.8338,0.0512 20.2033,-2.2968 24.3582,-13.1812 0.7015,-1.2403 1.7029,-2.0184 2.9577,-2.4019 0.8685,-0.8228 1.7366,-1.646 2.6051,-2.4689 -1.9925,-3.0828 -5.2015,-5.367 -8.9737,-6.6636 -5.8988,-2.0276 -13.188,-2.1079 -19.4436,0.8378 -4.2476,2.4298 -8.6519,5.6064 -13.1297,9.4765 -0.4153,-1.4357 -0.274,-2.764 0.3003,-4.2005 4.0955,-9.7706 6.1149,-20.4118 4.6327,-32.5212 -0.7138,-0.1625 -1.4271,-0.3247 -2.1409,-0.4872 -1.8719,10.3507 -4.9786,20.3587 -8.9477,30.1286 -3.545,-7.2295 -8.4558,-12.002 -14.0301,-15.5812 -14.2941,-8.0302 -22.7797,-5.4218 -29.777,-0.0845 -1.0405,1.0243 -2.0815,2.049 -3.122,3.0733 -0.875,1.4101 -0.7758,2.899 1.4731,3.799 2.9484,1.1089 5.0541,2.9927 6.208,5.7518 3.4871,6.7695 9.8116,10.5983 18.48,11.9943 3.4481,0.5552 6.2682,-0.122 10.4139,0.2619 1.5443,0.143 3.786,1.6747 5.1717,2.371 1.3302,0.5708 1.8508,1.7125 1.3807,3.5543 z"
         style="fill:#009035;fill-rule:evenodd"
         id="path8"
         inkscape:connector-curvature="0" />
      <path
         d="m 175.0818,344.9476 c 0.0112,0.2214 0.0648,0.6523 0.6295,0.7846 7.3823,-4.6769 14.7975,-8.7157 23.4943,-9.6777 1.3983,-0.1866 1.7159,-1.0912 0.9156,-1.3673 -9.6634,-1.261 -18.4103,1.8636 -25.0394,10.2604 z"
         style="fill:#ffffff;fill-rule:evenodd"
         id="path10"
         inkscape:connector-curvature="0" />
      <path
         d="m 130.3775,319.6765 c -0.2843,-0.0708 -0.2169,-0.7456 0.0739,-0.7823 3.6879,-0.4638 8.2098,-0.9582 14.1397,0.9849 6.6555,2.1809 12.6946,6.7588 16.4782,13.0191 -5.0452,-4.0656 -9.9694,-7.1102 -15.7694,-9.4778 -4.6951,-1.9167 -10.356,-2.6095 -14.9224,-3.7439 z"
         style="fill:#ffffff;fill-rule:evenodd"
         id="path12"
         inkscape:connector-curvature="0" />
    </g>
  </g>
</svg>
