<?xml version="1.0" encoding="UTF-8" standalone="no"?>
<svg xmlns:dc="http://purl.org/dc/elements/1.1/" xmlns:cc="http://creativecommons.org/ns#" xmlns:rdf="http://www.w3.org/1999/02/22-rdf-syntax-ns#" xmlns:svg="http://www.w3.org/2000/svg" xmlns="http://www.w3.org/2000/svg" xml:space="preserve" style="enable-background:new 0 0 1606.4 227.4;" viewBox="0 0 1606.4 227.4" y="0px" x="0px" id="Layer_1" version="1.1"><metadata id="metadata20"><rdf:RDF><cc:Work rdf:about=""><dc:format>image/svg+xml</dc:format><dc:type rdf:resource="http://purl.org/dc/dcmitype/StillImage"/><dc:title/></cc:Work></rdf:RDF></metadata><defs id="defs18"/>
<style id="style2" type="text/css">
	.st0{fill:none;stroke:url(#SVGID_1_);stroke-width:40;stroke-linejoin:round;}
	.st1{fill:#333333;}
	.st2{font-family:'Arial-BoldMT';}
	.st3{font-size:153.8282px;}
</style>
<linearGradient gradientTransform="matrix(1,0,0,-1,-8.5084747,232.8076)" y2="117.4038" x2="357.8997" y1="117.4038" x1="37.8997" gradientUnits="userSpaceOnUse" id="SVGID_1_">
	<stop id="stop4" style="stop-color:#E96C12" offset="0"/>
	<stop id="stop6" style="stop-color:#F6B115" offset="0.5"/>
	<stop id="stop8" style="stop-color:#E96C12" offset="1"/>
</linearGradient>
<path style="fill:none;stroke:url(#SVGID_1_);stroke-width:40;stroke-linejoin:round" id="path11" d="M 29.391525,175.4 H 129.39153 v -60 H 49.391525 v -60 H 189.39153 v 120 h 140 v -60 h -80 v -60 h 100" class="st0"/>
<g id="text13" style="font-style:normal;font-variant:normal;font-weight:bold;font-stretch:normal;font-size:153.82208252px;font-family:Arial;-inkscape-font-specification:'Arial, Bold';font-variant-ligatures:normal;font-variant-caps:normal;font-variant-numeric:normal;font-feature-settings:normal;text-align:start;writing-mode:lr-tb;text-anchor:start;fill:#fff;fill-opacity:1" transform="matrix(1.0011,0,0,1,404.41007,169.4682)" aria-label="Санлайн-Строй"><path id="path827" style="font-style:normal;font-variant:normal;font-weight:bold;font-stretch:normal;font-size:153.82208252px;font-family:Arial;-inkscape-font-specification:'Arial, Bold';font-variant-ligatures:normal;font-variant-caps:normal;font-variant-numeric:normal;font-feature-settings:normal;text-align:start;writing-mode:lr-tb;text-anchor:start;fill:#fff;fill-opacity:1" d="m 81.642873,-40.483448 21.556117,6.834867 Q 98.241838,-15.622555 86.675138,-6.8348679 75.183547,1.877711 57.457956,1.877711 q -21.931664,0 -36.052051,-14.946579 -14.1203864,-15.021688 -14.1203864,-41.009208 0,-27.489688 14.1954944,-42.661593 14.195495,-15.247011 37.328895,-15.247011 20.20417,0 32.822387,11.94224 7.510844,7.060193 11.266265,20.279278 l -22.006771,5.257591 q -1.95282,-8.562362 -8.18682,-13.519519 -6.158892,-4.957157 -15.021688,-4.957157 -12.242676,0 -19.903736,8.787687 -7.585953,8.787688 -7.585953,28.466098 0,20.880146 7.510844,29.742942 7.510844,8.862796 19.528194,8.862796 8.862796,0 15.247013,-5.633133 6.384218,-5.633133 9.16323,-17.725591 z"/><path id="path829" style="font-style:normal;font-variant:normal;font-weight:bold;font-stretch:normal;font-size:153.82208252px;font-family:Arial;-inkscape-font-specification:'Arial, Bold';font-variant-ligatures:normal;font-variant-caps:normal;font-variant-numeric:normal;font-feature-settings:normal;text-align:start;writing-mode:lr-tb;text-anchor:start;fill:#fff;fill-opacity:1" d="m 139.7768,-55.430028 -19.15265,-3.454988 q 3.22966,-11.5667 11.11605,-17.124724 7.88638,-5.558024 23.43383,-5.558024 14.12039,0 21.03036,3.379879 6.90998,3.304772 9.68899,8.487254 2.85412,5.107374 2.85412,18.852218 l -0.22532,24.635568 q 0,10.515181 0.97641,15.547447 Q 190.55011,-5.7082413 193.32912,0 h -20.88015 q -0.82619,-2.1030363 -2.02793,-6.2340004 -0.52575,-1.877711 -0.75108,-2.4785785 -5.40781,5.2575907 -11.5667,7.88638607 -6.15889,2.62879533 -13.14398,2.62879533 -12.31778,0 -19.45308,-6.684651 -7.06019,-6.6846515 -7.06019,-16.8993985 0,-6.75976 3.22966,-12.01735 3.22966,-5.3327 9.01301,-8.111712 5.85846,-2.85412 16.82429,-4.957157 14.79636,-2.779012 20.5046,-5.182482 v -2.103036 q 0,-6.083784 -3.00433,-8.637471 -3.00434,-2.628795 -11.34138,-2.628795 -5.63313,0 -8.78768,2.253253 -3.15456,2.178145 -5.10738,7.736169 z m 28.24077,17.124724 q -4.05585,1.351952 -12.84354,3.229663 -8.78769,1.877711 -11.49159,3.680314 -4.13096,2.929229 -4.13096,7.435735 0,4.431398 3.30477,7.661061 3.30477,3.229663 8.41214,3.229663 5.70824,0 10.89073,-3.755422 3.83053,-2.854121 5.03226,-6.985085 0.82619,-2.703904 0.82619,-10.289856 z"/><path id="path831" style="font-style:normal;font-variant:normal;font-weight:bold;font-stretch:normal;font-size:153.82208252px;font-family:Arial;-inkscape-font-specification:'Arial, Bold';font-variant-ligatures:normal;font-variant-caps:normal;font-variant-numeric:normal;font-feature-settings:normal;text-align:start;writing-mode:lr-tb;text-anchor:start;fill:#fff;fill-opacity:1" d="m 208.80145,-79.765162 h 21.10547 v 29.217183 h 30.19359 v -29.217183 h 21.18058 V 0 H 260.10051 V -33.498364 H 229.90692 V 0 h -21.10547 z"/><path id="path833" style="font-style:normal;font-variant:normal;font-weight:bold;font-stretch:normal;font-size:153.82208252px;font-family:Arial;-inkscape-font-specification:'Arial, Bold';font-variant-ligatures:normal;font-variant-caps:normal;font-variant-numeric:normal;font-feature-settings:normal;text-align:start;writing-mode:lr-tb;text-anchor:start;fill:#fff;fill-opacity:1" d="m 308.16993,-79.765162 h 70.67704 V 0 h -21.03036 v -62.640438 h -28.76654 v 35.826725 q 0,13.669736 -3.15455,19.2277607 -3.15456,5.482916 -6.98509,7.21041011 -3.83053,1.72749409 -12.31778,1.72749409 -5.03226,0 -13.29419,-1.3519519 v -15.547447 q 0.67597,0 3.53009,0.150217 3.30477,0.225325 5.10738,0.225325 4.28118,0 5.25759,-2.779012 0.97641,-2.854121 0.97641,-15.697664 z"/><path id="path835" style="font-style:normal;font-variant:normal;font-weight:bold;font-stretch:normal;font-size:153.82208252px;font-family:Arial;-inkscape-font-specification:'Arial, Bold';font-variant-ligatures:normal;font-variant-caps:normal;font-variant-numeric:normal;font-feature-settings:normal;text-align:start;writing-mode:lr-tb;text-anchor:start;fill:#fff;fill-opacity:1" d="m 415.87542,-55.430028 -19.15265,-3.454988 q 3.22966,-11.5667 11.11605,-17.124724 7.88638,-5.558024 23.43383,-5.558024 14.12039,0 21.03036,3.379879 6.90998,3.304772 9.68899,8.487254 2.85412,5.107374 2.85412,18.852218 l -0.22532,24.635568 q 0,10.515181 0.97641,15.547447 Q 466.64872,-5.7082413 469.42774,0 h -20.88015 q -0.82619,-2.1030363 -2.02793,-6.2340004 -0.52576,-1.877711 -0.75108,-2.4785785 -5.40781,5.2575907 -11.5667,7.88638607 -6.15889,2.62879533 -13.14398,2.62879533 -12.31778,0 -19.45308,-6.684651 -7.0602,-6.6846515 -7.0602,-16.8993985 0,-6.75976 3.22967,-12.01735 3.22966,-5.3327 9.01301,-8.111712 5.85846,-2.85412 16.82429,-4.957157 14.79636,-2.779012 20.5046,-5.182482 v -2.103036 q 0,-6.083784 -3.00434,-8.637471 -3.00433,-2.628795 -11.34137,-2.628795 -5.63313,0 -8.78769,2.253253 -3.15455,2.178145 -5.10737,7.736169 z m 28.24077,17.124724 q -4.05585,1.351952 -12.84354,3.229663 -8.78769,1.877711 -11.49159,3.680314 -4.13097,2.929229 -4.13097,7.435735 0,4.431398 3.30478,7.661061 3.30477,3.229663 8.41214,3.229663 5.70824,0 10.89072,-3.755422 3.83053,-2.854121 5.03227,-6.985085 0.82619,-2.703904 0.82619,-10.289856 z"/><path id="path837" style="font-style:normal;font-variant:normal;font-weight:bold;font-stretch:normal;font-size:153.82208252px;font-family:Arial;-inkscape-font-specification:'Arial, Bold';font-variant-ligatures:normal;font-variant-caps:normal;font-variant-numeric:normal;font-feature-settings:normal;text-align:start;writing-mode:lr-tb;text-anchor:start;fill:#fff;fill-opacity:1" d="m 485.20051,-79.765162 h 20.27928 v 50.097329 l 32.44685,-50.097329 h 20.72993 V 0 H 538.37729 V -50.99863 L 505.47979,0 h -20.27928 z m 50.54798,-32.371738 h 10.28986 q -0.9013,10.21475 -7.21041,16.073207 -6.234,5.78335 -16.22342,5.78335 -9.98943,0 -16.29853,-5.78335 -6.234,-5.858457 -7.13531,-16.073207 h 10.28986 q 0.52576,5.3327 3.75542,8.11171 3.22967,2.70391 9.38856,2.70391 6.15889,0 9.38855,-2.70391 3.22966,-2.77901 3.75542,-8.11171 z"/><path id="path839" style="font-style:normal;font-variant:normal;font-weight:bold;font-stretch:normal;font-size:153.82208252px;font-family:Arial;-inkscape-font-specification:'Arial, Bold';font-variant-ligatures:normal;font-variant-caps:normal;font-variant-numeric:normal;font-feature-settings:normal;text-align:start;writing-mode:lr-tb;text-anchor:start;fill:#fff;fill-opacity:1" d="m 579.53671,-79.765162 h 21.10547 v 29.217183 h 30.19359 v -29.217183 h 21.18058 V 0 H 630.83577 V -33.498364 H 600.64218 V 0 h -21.10547 z"/><path id="path841" style="font-style:normal;font-variant:normal;font-weight:bold;font-stretch:normal;font-size:153.82208252px;font-family:Arial;-inkscape-font-specification:'Arial, Bold';font-variant-ligatures:normal;font-variant-caps:normal;font-variant-numeric:normal;font-feature-settings:normal;text-align:start;writing-mode:lr-tb;text-anchor:start;fill:#fff;fill-opacity:1" d="m 670.79348,-29.3674 v -21.105471 h 41.45985 V -29.3674 Z"/><path id="path843" style="font-style:normal;font-variant:normal;font-weight:bold;font-stretch:normal;font-size:153.82208252px;font-family:Arial;-inkscape-font-specification:'Arial, Bold';font-variant-ligatures:normal;font-variant-caps:normal;font-variant-numeric:normal;font-feature-settings:normal;text-align:start;writing-mode:lr-tb;text-anchor:start;fill:#fff;fill-opacity:1" d="m 795.17302,-40.483448 21.55613,6.834867 q -4.95716,18.026026 -16.52386,26.8137131 -11.49159,8.7125789 -29.21718,8.7125789 -21.93167,0 -36.05205,-14.946579 -14.12039,-15.021688 -14.12039,-41.009208 0,-27.489688 14.19549,-42.661593 14.1955,-15.247011 37.3289,-15.247011 20.20417,0 32.82239,11.94224 7.51084,7.060193 11.26626,20.279278 l -22.00677,5.257591 q -1.95282,-8.562362 -8.18682,-13.519519 -6.15889,-4.957157 -15.02169,-4.957157 -12.24267,0 -19.90373,8.787687 -7.58596,8.787688 -7.58596,28.466098 0,20.880146 7.51085,29.742942 7.51084,8.862796 19.52819,8.862796 8.8628,0 15.24701,-5.633133 6.38422,-5.633133 9.16323,-17.725591 z"/><path id="path845" style="font-style:normal;font-variant:normal;font-weight:bold;font-stretch:normal;font-size:153.82208252px;font-family:Arial;-inkscape-font-specification:'Arial, Bold';font-variant-ligatures:normal;font-variant-caps:normal;font-variant-numeric:normal;font-feature-settings:normal;text-align:start;writing-mode:lr-tb;text-anchor:start;fill:#fff;fill-opacity:1" d="m 826.26795,-79.765162 h 72.17921 v 17.049616 H 872.91029 V 0 h -21.10547 v -62.715546 h -25.53687 z"/><path id="path847" style="font-style:normal;font-variant:normal;font-weight:bold;font-stretch:normal;font-size:153.82208252px;font-family:Arial;-inkscape-font-specification:'Arial, Bold';font-variant-ligatures:normal;font-variant-caps:normal;font-variant-numeric:normal;font-feature-settings:normal;text-align:start;writing-mode:lr-tb;text-anchor:start;fill:#fff;fill-opacity:1" d="m 910.53962,-79.765162 h 19.67841 v 11.716917 q 3.83053,-6.008676 10.36497,-9.764098 6.53443,-3.755421 14.49593,-3.755421 13.89506,0 23.58405,10.890723 9.68898,10.890724 9.68898,30.343809 0,19.978845 -9.76409,31.094894 -9.7641,11.0409405 -23.65916,11.0409405 -6.60954,0 -12.01735,-2.62879533 -5.3327,-2.62879537 -11.26627,-9.01301267 V 30.343809 h -21.10547 z m 20.88015,38.530629 q 0,13.444411 5.3327,19.903736 5.3327,6.384218 12.99376,6.384218 7.36062,0 12.24267,-5.858459 4.88205,-5.933566 4.88205,-19.377977 0,-12.543109 -5.03227,-18.626893 -5.03226,-6.083783 -12.468,-6.083783 -7.73617,0 -12.84354,6.008675 -5.10737,5.933567 -5.10737,17.650483 z"/><path id="path849" style="font-style:normal;font-variant:normal;font-weight:bold;font-stretch:normal;font-size:153.82208252px;font-family:Arial;-inkscape-font-specification:'Arial, Bold';font-variant-ligatures:normal;font-variant-caps:normal;font-variant-numeric:normal;font-feature-settings:normal;text-align:start;writing-mode:lr-tb;text-anchor:start;fill:#fff;fill-opacity:1" d="m 1000.2942,-41.009208 q 0,-10.515181 5.1825,-20.354386 5.1825,-9.839206 14.6461,-15.021688 9.5388,-5.182482 21.2557,-5.182482 18.1012,0 29.6679,11.792024 11.5667,11.716917 11.5667,29.667834 0,18.101133 -11.717,30.043375 -11.6418,11.8671335 -29.3674,11.8671335 -10.9658,0 -20.9552,-4.9571569 -9.9143,-4.957157 -15.0968,-14.4959286 -5.1825,-9.61388 -5.1825,-23.358725 z m 21.6312,1.126627 q 0,11.867133 5.6332,18.176242 5.6331,6.309109 13.895,6.309109 8.262,0 13.82,-6.309109 5.6331,-6.309109 5.6331,-18.326459 0,-11.716916 -5.6331,-18.026025 -5.558,-6.309109 -13.82,-6.309109 -8.2619,0 -13.895,6.309109 -5.6332,6.309109 -5.6332,18.176242 z"/><path id="path851" style="font-style:normal;font-variant:normal;font-weight:bold;font-stretch:normal;font-size:153.82208252px;font-family:Arial;-inkscape-font-specification:'Arial, Bold';font-variant-ligatures:normal;font-variant-caps:normal;font-variant-numeric:normal;font-feature-settings:normal;text-align:start;writing-mode:lr-tb;text-anchor:start;fill:#fff;fill-opacity:1" d="m 1098.6862,-79.765162 h 20.2793 v 50.097329 l 32.4468,-50.097329 h 20.73 V 0 H 1151.863 V -50.99863 L 1118.9655,0 h -20.2793 z m 50.548,-32.371738 h 10.2898 q -0.9013,10.21475 -7.2104,16.073207 -6.234,5.78335 -16.2234,5.78335 -9.9894,0 -16.2985,-5.78335 -6.234,-5.858457 -7.1353,-16.073207 h 10.2898 q 0.5258,5.3327 3.7554,8.11171 3.2297,2.70391 9.3886,2.70391 6.1589,0 9.3886,-2.70391 3.2296,-2.77901 3.7554,-8.11171 z"/></g>
<script xmlns=""/></svg>